<svg id="Layer_1" data-name="Layer 1" xmlns="http://www.w3.org/2000/svg" viewBox="0 0 98 98"><defs><style>.cls-1{fill:#fff;}.cls-2{fill:none;stroke:#fff;stroke-miterlimit:10;stroke-width:5px;}</style></defs><title>svg-instagram-logo-icon-white</title><path class="cls-1" d="M79.4,1H20.6A19.66,19.66,0,0,0,1,20.6V79.4A19.66,19.66,0,0,0,20.6,99H79.4A19.66,19.66,0,0,0,99,79.4V20.6A19.66,19.66,0,0,0,79.4,1Zm5.42,64.22a19.66,19.66,0,0,1-19.6,19.6H34.78a19.66,19.66,0,0,1-19.6-19.6V34.78a19.66,19.66,0,0,1,19.6-19.6H65.22a19.66,19.66,0,0,1,19.6,19.6Z" transform="translate(-1 -1)"/><circle class="cls-2" cx="49" cy="49" r="16.33"/><circle class="cls-1" cx="70.23" cy="28.6" r="4.9"/></svg>